<?xml version="1.0" encoding="UTF-8" standalone="no"?>
<!-- Created with Inkscape (http://www.inkscape.org/) -->

<svg
   xmlns:dc="http://purl.org/dc/elements/1.1/"
   xmlns:cc="http://creativecommons.org/ns#"
   xmlns:rdf="http://www.w3.org/1999/02/22-rdf-syntax-ns#"
   xmlns:svg="http://www.w3.org/2000/svg"
   xmlns="http://www.w3.org/2000/svg"
   xmlns:sodipodi="http://sodipodi.sourceforge.net/DTD/sodipodi-0.dtd"
   xmlns:inkscape="http://www.inkscape.org/namespaces/inkscape"
   id="svg4155"
   version="1.1"
   inkscape:version="0.91 r13725"
   xml:space="preserve"
   width="116"
   height="25"
   viewBox="0 0 232 50"
   sodipodi:docname="betboys.svg"><metadata
     id="metadata4161"><rdf:RDF><cc:Work
         rdf:about=""><dc:format>image/svg+xml</dc:format><dc:type
           rdf:resource="http://purl.org/dc/dcmitype/StillImage" /><dc:title></dc:title></cc:Work></rdf:RDF></metadata><defs
     id="defs4159"><clipPath
       clipPathUnits="userSpaceOnUse"
       id="clipPath4169"><path
         d="m 0,0 595.276,0 0,419.528 L 0,419.528 0,0 Z"
         id="path4171"
         inkscape:connector-curvature="0"
         style="clip-rule:evenodd" /></clipPath><radialGradient
       fx="300.02802"
       fy="208.577"
       cx="300.02802"
       cy="208.577"
       r="330.93201"
       gradientUnits="userSpaceOnUse"
       spreadMethod="pad"
       id="radialGradient4173"
       gradientTransform="matrix(1.4286313,0.00416159,-0.0037273,1.279546,-322.71324,-84.224994)"><stop
         style="stop-opacity:1;stop-color:#ffffff"
         offset="0"
         id="stop4175" /><stop
         style="stop-opacity:1;stop-color:#d6d6d6"
         offset="1"
         id="stop4177" /></radialGradient><linearGradient
       x1="354.914"
       y1="191.685"
       x2="354.914"
       y2="229.27299"
       gradientUnits="userSpaceOnUse"
       spreadMethod="pad"
       id="linearGradient4181"><stop
         style="stop-opacity:1;stop-color:#808080"
         offset="0"
         id="stop4183" /><stop
         style="stop-opacity:1;stop-color:#d1d1d1"
         offset="1"
         id="stop4185" /></linearGradient><linearGradient
       x1="354.914"
       y1="191.685"
       x2="354.914"
       y2="229.27299"
       gradientUnits="userSpaceOnUse"
       spreadMethod="pad"
       id="linearGradient4189"><stop
         style="stop-opacity:1;stop-color:#808080"
         offset="0"
         id="stop4191" /><stop
         style="stop-opacity:1;stop-color:#d1d1d1"
         offset="1"
         id="stop4193" /></linearGradient><linearGradient
       x1="354.914"
       y1="191.685"
       x2="354.914"
       y2="229.27299"
       gradientUnits="userSpaceOnUse"
       spreadMethod="pad"
       id="linearGradient4197"><stop
         style="stop-opacity:1;stop-color:#808080"
         offset="0"
         id="stop4199" /><stop
         style="stop-opacity:1;stop-color:#d1d1d1"
         offset="1"
         id="stop4201" /></linearGradient><linearGradient
       x1="354.914"
       y1="191.685"
       x2="354.914"
       y2="229.27299"
       gradientUnits="userSpaceOnUse"
       spreadMethod="pad"
       id="linearGradient4205"><stop
         style="stop-opacity:1;stop-color:#808080"
         offset="0"
         id="stop4207" /><stop
         style="stop-opacity:1;stop-color:#d1d1d1"
         offset="1"
         id="stop4209" /></linearGradient><linearGradient
       x1="354.914"
       y1="191.685"
       x2="354.914"
       y2="229.27299"
       gradientUnits="userSpaceOnUse"
       spreadMethod="pad"
       id="linearGradient4213"><stop
         style="stop-opacity:1;stop-color:#808080"
         offset="0"
         id="stop4215" /><stop
         style="stop-opacity:1;stop-color:#d1d1d1"
         offset="1"
         id="stop4217" /></linearGradient><linearGradient
       x1="354.914"
       y1="191.685"
       x2="354.914"
       y2="229.27299"
       gradientUnits="userSpaceOnUse"
       spreadMethod="pad"
       id="linearGradient4221"><stop
         style="stop-opacity:1;stop-color:#808080"
         offset="0"
         id="stop4223" /><stop
         style="stop-opacity:1;stop-color:#d1d1d1"
         offset="1"
         id="stop4225" /></linearGradient><linearGradient
       x1="354.914"
       y1="191.685"
       x2="354.914"
       y2="229.27299"
       gradientUnits="userSpaceOnUse"
       spreadMethod="pad"
       id="linearGradient4229"><stop
         style="stop-opacity:1;stop-color:#808080"
         offset="0"
         id="stop4231" /><stop
         style="stop-opacity:1;stop-color:#d1d1d1"
         offset="1"
         id="stop4233" /></linearGradient><linearGradient
       x1="354.914"
       y1="191.685"
       x2="354.914"
       y2="229.27299"
       gradientUnits="userSpaceOnUse"
       spreadMethod="pad"
       id="linearGradient4237"><stop
         style="stop-opacity:1;stop-color:#808080"
         offset="0"
         id="stop4239" /><stop
         style="stop-opacity:1;stop-color:#d1d1d1"
         offset="1"
         id="stop4241" /></linearGradient><linearGradient
       x1="354.914"
       y1="191.685"
       x2="354.914"
       y2="229.27299"
       gradientUnits="userSpaceOnUse"
       spreadMethod="pad"
       id="linearGradient4245"><stop
         style="stop-opacity:1;stop-color:#808080"
         offset="0"
         id="stop4247" /><stop
         style="stop-opacity:1;stop-color:#d1d1d1"
         offset="1"
         id="stop4249" /></linearGradient><linearGradient
       x1="354.914"
       y1="191.685"
       x2="354.914"
       y2="229.27299"
       gradientUnits="userSpaceOnUse"
       spreadMethod="pad"
       id="linearGradient4253"><stop
         style="stop-opacity:1;stop-color:#808080"
         offset="0"
         id="stop4255" /><stop
         style="stop-opacity:1;stop-color:#d1d1d1"
         offset="1"
         id="stop4257" /></linearGradient><linearGradient
       x1="354.914"
       y1="191.685"
       x2="354.914"
       y2="229.27299"
       gradientUnits="userSpaceOnUse"
       spreadMethod="pad"
       id="linearGradient4261"><stop
         style="stop-opacity:1;stop-color:#808080"
         offset="0"
         id="stop4263" /><stop
         style="stop-opacity:1;stop-color:#d1d1d1"
         offset="1"
         id="stop4265" /></linearGradient></defs><sodipodi:namedview
     pagecolor="#ffffff"
     bordercolor="#666666"
     borderopacity="1"
     objecttolerance="10"
     gridtolerance="10"
     guidetolerance="10"
     inkscape:pageopacity="0"
     inkscape:pageshadow="2"
     inkscape:window-width="1920"
     inkscape:window-height="1131"
     id="namedview4157"
     showgrid="false"
     inkscape:zoom="3.6688852"
     inkscape:cx="132.64121"
     inkscape:cy="76.811867"
     inkscape:window-x="0"
     inkscape:window-y="24"
     inkscape:window-maximized="1"
     inkscape:current-layer="g4884" /><g
     id="g4163"
     inkscape:groupmode="layer"
     inkscape:label="BETBOYS_LOGO_A5_white"
     transform="matrix(1.25,0,0,-1.25,0,50.000027)"><g
       id="g4165"><g
         id="g4167"
         clip-path="url(#clipPath4169)"><g
           id="g4884"
           transform="translate(-204.838,-189.76398)"><path
             inkscape:connector-curvature="0"
             id="path4187"
             style="fill:url(#linearGradient4181);fill-opacity:1;fill-rule:nonzero;stroke:none"
             d="m 252.198,202.411 c 1.32,-0.42 2.922,-0.63 4.808,-0.63 5.075,0 7.613,2.893 7.613,8.679 0,4.887 -2.299,7.331 -6.896,7.331 -2.088,0 -3.93,-0.392 -5.525,-1.175 l 0,-14.205 z m -4.024,27.126 4.024,0 0,-9.354 c 1.726,0.725 3.575,1.088 5.547,1.088 7.222,0 10.833,-3.654 10.833,-10.963 0,-7.918 -3.792,-11.877 -11.377,-11.877 -3.277,0 -6.286,0.311 -9.027,0.935 l 0,30.171 z" /><path
             inkscape:connector-curvature="0"
             id="path4195"
             style="fill:url(#linearGradient4189);fill-opacity:1;fill-rule:nonzero;stroke:none"
             d="m 281.357,221.271 c 6.497,0 9.745,-3.212 9.745,-9.636 0,-0.914 -0.065,-1.893 -0.195,-2.937 l -16.032,0 c 0,-4.67 2.726,-7.004 8.179,-7.004 2.596,0 4.901,0.29 6.917,0.87 l 0,-3.263 c -2.016,-0.58 -4.466,-0.87 -7.352,-0.87 -7.846,0 -11.768,3.893 -11.768,11.681 0,7.439 3.502,11.159 10.506,11.159 z m -6.482,-9.223 12.355,0 c -0.087,4.002 -2.044,6.004 -5.873,6.004 -4.06,0 -6.221,-2.002 -6.482,-6.004 z" /><path
             inkscape:connector-curvature="0"
             id="path4203"
             style="fill:url(#linearGradient4197);fill-opacity:1;fill-rule:nonzero;stroke:none"
             d="m 293.214,224.969 2.523,0 0.871,-3.698 6.177,0 0,-3.263 -5.547,0 0,-13.117 c 0,-2.132 0.921,-3.197 2.763,-3.197 l 2.784,0 0,-3.263 -3.828,0 c -3.829,0 -5.743,2.052 -5.743,6.156 l 0,20.382 z" /><path
             inkscape:connector-curvature="0"
             id="path4211"
             style="fill:url(#linearGradient4205);fill-opacity:1;fill-rule:nonzero;stroke:none"
             d="m 309.026,202.411 c 1.319,-0.42 2.922,-0.63 4.807,-0.63 5.076,0 7.614,2.893 7.614,8.679 0,4.887 -2.299,7.331 -6.896,7.331 -2.088,0 -3.93,-0.392 -5.525,-1.175 l 0,-14.205 z m -4.024,27.126 4.024,0 0,-9.354 c 1.725,0.725 3.574,1.088 5.547,1.088 7.222,0 10.833,-3.654 10.833,-10.963 0,-7.918 -3.793,-11.877 -11.377,-11.877 -3.278,0 -6.287,0.311 -9.027,0.935 l 0,30.171 z" /><path
             inkscape:connector-curvature="0"
             id="path4219"
             style="fill:url(#linearGradient4213);fill-opacity:1;fill-rule:nonzero;stroke:none"
             d="m 338.554,201.694 c 4.569,0 6.853,2.748 6.853,8.244 0,5.38 -2.284,8.07 -6.853,8.07 -4.568,0 -6.852,-2.69 -6.852,-8.07 0,-5.496 2.284,-8.244 6.852,-8.244 z m -10.876,8.157 c 0,7.613 3.626,11.42 10.876,11.42 7.251,0 10.877,-3.807 10.877,-11.42 0,-7.599 -3.626,-11.399 -10.877,-11.399 -7.221,0 -10.847,3.8 -10.876,11.399 z" /><path
             inkscape:connector-curvature="0"
             id="path4227"
             style="fill:url(#linearGradient4221);fill-opacity:1;fill-rule:nonzero;stroke:none"
             d="m 349.254,221.271 4.372,0 6.461,-17.837 6.678,17.837 4.264,0 -9.485,-23.515 c -1.682,-4.147 -4.205,-6.736 -7.569,-7.765 l -1.545,2.849 c 2.552,1.117 4.409,2.937 5.569,5.46 l -8.745,22.971 z" /><path
             inkscape:connector-curvature="0"
             id="path4235"
             style="fill:url(#linearGradient4229);fill-opacity:1;fill-rule:nonzero;stroke:none"
             d="m 372.518,199.518 0,3.481 c 2.683,-0.87 5.395,-1.305 8.136,-1.305 3.64,0 5.46,1.087 5.46,3.262 0,2.031 -1.269,3.046 -3.807,3.046 l -3.263,0 c -4.931,0 -7.396,2.248 -7.396,6.743 0,4.351 3.169,6.526 9.506,6.526 2.726,0 5.431,-0.363 8.114,-1.088 l 0,-3.48 c -2.683,0.87 -5.388,1.305 -8.114,1.305 -3.8,0 -5.699,-1.088 -5.699,-3.263 0,-2.03 1.196,-3.045 3.589,-3.045 l 3.263,0 c 5.22,0 7.831,-2.248 7.831,-6.744 0,-4.35 -3.162,-6.525 -9.484,-6.525 -2.741,0 -5.453,0.362 -8.136,1.087 z" /><g
             id="g4916"><path
               d="m 232.738,208.311 c 0,0 1.549,-0.007 2.411,-0.007 3.056,-0.001 6.198,-1.552 6.184,-4.494 -0.016,-3.411 -3.357,-4.764 -6.149,-4.753 -0.856,0.004 -11.647,-0.023 -11.647,-0.023 l 9.201,9.277 z"
               style="fill:url(#linearGradient4237);fill-opacity:1;fill-rule:evenodd;stroke:none"
               id="path4243"
               inkscape:connector-curvature="0" /><path
               d="m 232.738,211.709 c 0,0 1.549,0.008 2.411,0.008 3.056,0 6.198,1.551 6.184,4.494 -0.016,3.41 -3.357,4.774 -6.149,4.752 -3.079,-0.024 -11.647,0.023 -11.647,0.023 l 9.201,-9.277 z"
               style="fill:url(#linearGradient4245);fill-opacity:1;fill-rule:evenodd;stroke:none"
               id="path4251"
               inkscape:connector-curvature="0" /><path
               d="m 214.339,208.311 c 0,0 1.55,-0.007 2.412,-0.007 3.055,-0.001 6.197,-1.552 6.183,-4.494 -0.016,-3.411 -3.357,-4.775 -6.149,-4.753 -3.079,0.025 -11.647,-0.023 -11.647,-0.023 l 9.201,9.277 z"
               style="fill:url(#linearGradient4253);fill-opacity:1;fill-rule:evenodd;stroke:none"
               id="path4259"
               inkscape:connector-curvature="0" /><path
               d="m 214.339,211.709 c 0,0 1.55,0.008 2.412,0.008 3.055,0 6.197,1.551 6.183,4.494 -0.016,3.41 -3.357,4.774 -6.149,4.752 -3.079,-0.024 -11.647,0.023 -11.647,0.023 l 9.201,-9.277 z"
               style="fill:url(#linearGradient4261);fill-opacity:1;fill-rule:evenodd;stroke:none"
               id="path4267"
               inkscape:connector-curvature="0" /></g></g></g></g></g></svg>